<?xml version="1.0" encoding="utf-8"?>
<!-- Generator: Adobe Illustrator 24.0.1, SVG Export Plug-In . SVG Version: 6.00 Build 0)  -->
<svg version="1.1" xmlns="http://www.w3.org/2000/svg" xmlns:xlink="http://www.w3.org/1999/xlink" x="0px" y="0px"
	 viewBox="0 0 2712.3 777.4" style="enable-background:new 0 0 2712.3 777.4;" xml:space="preserve">
<g id="Calque_1">
</g>
<g id="Calque_1_-_copie_2">
	<path d="M86.8,109.5v575.1h2531.9V109.5H86.8z M514.7,624.3c-118.4,0-236.8,0-355.6,0c0-153.7,0-307.3,0-461
		c50-0.1,100.1-0.1,150.1-0.2c0.8,0,1.5,0.3,3.3,0.7c0,102.1,0,204.4,0,307.4c67.8,0,134.5,0,202.1,0
		C514.7,522.8,514.7,573.6,514.7,624.3z M565.1,624.3c-0.1-2.6-0.3-5.2-0.3-7.8c0-148.1,0-296.2,0-444.3c0-2.6,0-5.2,0-8.5
		c118.1,0,235.9,0,354.1,0c0,50.6,0,101,0,152.2c-67,0-133.7,0-200.8,0c0,12.7,0,24.7,0,37.5c62.5,0,124.9,0,187.9,0
		c0,26.9,0,53,0,80c-62.4,0-124.9,0-187.8,0c0,12.9,0,24.8,0,37.7c66.8,0,133.8,0,201.7,0c0,4,0,7.1,0,10.2c0,44.6,0,89.1,0,133.7
		c0,3.1,0.5,6.2,0.7,9.3C802.1,624.3,683.6,624.3,565.1,624.3z M1312.4,624.3c-74.5,0-148.9,0-223.4,0
		c-42.5-152.9-85.1-305.9-127.8-459.6c63.8,0,126.8,0,190.6,0c16,99.1,31.9,198.4,47.9,297.7c0.7,0,1.3,0,2,0
		c15.9-99.1,31.9-198.1,47.9-297.7c63.4,0,126.4,0,190.6,0C1397.5,318.1,1355,471.2,1312.4,624.3z M1836.3,624.3
		c-118.5,0-237,0-355.6,0c0.3-3.6,0.7-7.3,0.7-10.9c0-146.3,0-292.6,0-438.8c0-3.6,0-7.2,0-11.2c118.6,0,236.2,0,354.3,0
		c0,50.7,0,101.2,0,152.4c-66.8,0-133.5,0-200.7,0c0,12.7,0,24.7,0,37.6c62.3,0,124.8,0,187.8,0c0,27,0,53.1,0,79.9
		c-62.4,0-124.7,0-187.6,0c0,12.9,0,25,0,38c66.8,0,133.5,0,201,0C1836.3,522.8,1836.3,573.6,1836.3,624.3z M2242.2,624.3
		c-118.5,0-237,0-355.6,0c0-153.4,0-306.7,0-460.6c50.9,0,101.3,0,152.6,0c0,102.1,0,204.3,0,307.4c67.7,0,134.7,0,203,0
		C2242.2,522.8,2242.2,573.5,2242.2,624.3z M2550.6,624.3c-50.9,0-101.7,0-152.6,0c0-102.5,0-204.9,0-308.2c-35.3,0-70,0-105.2,0
		c0-51.2,0-101.7,0-152.6c85.8,0,171.4,0,257.5,0c0.2,2.1,0.5,4.2,0.5,6.2c0,150.2,0,300.5,0,450.7
		C2550.8,621.7,2550.7,623,2550.6,624.3z"/>
</g>
</svg>
